<svg xmlns="http://www.w3.org/2000/svg" viewBox="0 0 1000 1333" preserveAspectRatio="xMidYMid slice" role="img"><defs><linearGradient id="bg" x1="0" y1="0" x2="1" y2="1"><stop offset="0" stop-color="#0d0f12"/><stop offset="0.5" stop-color="#0a0b0e"/><stop offset="1" stop-color="#08090b"/></linearGradient><radialGradient id="g0" cx="0.5" cy="0.32" r="0.5"><stop offset="0" stop-color="#b3484f" stop-opacity="0.32"/><stop offset="1" stop-color="#b3484f" stop-opacity="0"/></radialGradient><radialGradient id="g1" cx="0.5" cy="0.34" r="0.6"><stop offset="0" stop-color="#8fa3b5" stop-opacity="0.2"/><stop offset="1" stop-color="#8fa3b5" stop-opacity="0"/></radialGradient><linearGradient id="shade" x1="0" y1="0" x2="0" y2="1"><stop offset="0.35" stop-color="#000" stop-opacity="0"/><stop offset="1" stop-color="#000" stop-opacity="0.82"/></linearGradient><linearGradient id="rim" x1="0" y1="0" x2="1" y2="1"><stop offset="0" stop-color="#e8d9b8" stop-opacity="0.85"/><stop offset="1" stop-color="#e8d9b8" stop-opacity="0"/></linearGradient><linearGradient id="rim-cool" x1="0" y1="0" x2="1" y2="1"><stop offset="0" stop-color="#aab8c2" stop-opacity="0.8"/><stop offset="1" stop-color="#aab8c2" stop-opacity="0"/></linearGradient><radialGradient id="vig" cx="0.5" cy="0.45" r="0.8"><stop offset="0.6" stop-color="#000" stop-opacity="0"/><stop offset="1" stop-color="#000" stop-opacity="0.55"/></radialGradient><filter id="grain" x="0" y="0" width="100%" height="100%"><feTurbulence type="fractalNoise" baseFrequency="0.9" numOctaves="2" stitchTiles="stitch"/><feColorMatrix type="matrix" values="0 0 0 0 1 0 0 0 0 1 0 0 0 0 1 0 0 0 0.05 0"/></filter><linearGradient id="shaft" x1="0" y1="0" x2="0" y2="1"><stop offset="0" stop-color="#e8d9b8" stop-opacity="0.18"/><stop offset="1" stop-color="#e8d9b8" stop-opacity="0"/></linearGradient></defs><rect width="1000" height="1333" fill="url(#bg)"/><rect width="1000" height="1333" fill="url(#g0)"/><rect width="1000" height="1333" fill="url(#g1)"/><circle cx="500" cy="380" r="170" fill="none" stroke="#b3484f" stroke-opacity="0.3" stroke-width="1.5"/><circle cx="500" cy="380" r="120" fill="none" stroke="#b3484f" stroke-opacity="0.18" stroke-width="1"/><g transform="translate(500 800) scale(1.160)"><ellipse cx="0" cy="-120" rx="54" ry="62" fill="#14110d"/><path d="M-122 -84 C-150 140 -126 360 -96 560 L96 560 C126 360 150 140 122 -84 Z" fill="#221b13"/><ellipse cx="0" cy="-70" rx="46" ry="16" fill="#2a2217"/><path d="M-122 -84 C-176 60 -160 240 -120 300 L-70 250 C-92 140 -88 0 -76 -70 Z" fill="#1a1510"/><path d="M122 -84 C176 60 160 240 120 300 L70 250 C92 140 88 0 76 -70 Z" fill="#1a1510"/><path d="M96 90 C110 280 106 440 96 560" fill="none" stroke="url(#rim-cool)" stroke-width="3" opacity="0.8"/></g><path d="M0 799 Q500.0 772.34 1000 799" fill="none" stroke="#2a2620" stroke-width="2" opacity="0.55"/><rect width="1000" height="1333" fill="url(#shade)"/><rect width="1000" height="1333" filter="url(#grain)" opacity="0.55"/><rect width="1000" height="1333" fill="url(#vig)"/></svg>