<svg xmlns="http://www.w3.org/2000/svg" viewBox="0 0 1600 1000" preserveAspectRatio="xMidYMid slice" role="img"><defs><linearGradient id="bg" x1="0" y1="0" x2="1" y2="1"><stop offset="0" stop-color="#17130f"/><stop offset="0.5" stop-color="#0e0c0a"/><stop offset="1" stop-color="#0a0908"/></linearGradient><radialGradient id="g0" cx="0.35" cy="0.3" r="0.55"><stop offset="0" stop-color="#c2a878" stop-opacity="0.45"/><stop offset="1" stop-color="#c2a878" stop-opacity="0"/></radialGradient><radialGradient id="g1" cx="0.7" cy="0.5" r="0.4"><stop offset="0" stop-color="#6f7d86" stop-opacity="0.25"/><stop offset="1" stop-color="#6f7d86" stop-opacity="0"/></radialGradient><linearGradient id="shade" x1="0" y1="0" x2="0" y2="1"><stop offset="0.45" stop-color="#000" stop-opacity="0"/><stop offset="1" stop-color="#000" stop-opacity="0.66"/></linearGradient><linearGradient id="rim" x1="0" y1="0" x2="1" y2="1"><stop offset="0" stop-color="#e8d9b8" stop-opacity="0.85"/><stop offset="1" stop-color="#e8d9b8" stop-opacity="0"/></linearGradient><radialGradient id="vig" cx="0.5" cy="0.45" r="0.78"><stop offset="0.6" stop-color="#000" stop-opacity="0"/><stop offset="1" stop-color="#000" stop-opacity="0.5"/></radialGradient><filter id="grain" x="0" y="0" width="100%" height="100%"><feTurbulence type="fractalNoise" baseFrequency="0.9" numOctaves="2" stitchTiles="stitch"/><feColorMatrix type="matrix" values="0 0 0 0 1 0 0 0 0 1 0 0 0 0 1 0 0 0 0.05 0"/></filter></defs><rect width="1600" height="1000" fill="url(#bg)"/><rect width="1600" height="1000" fill="url(#g0)"/><rect width="1600" height="1000" fill="url(#g1)"/><line x1="120" y1="180" x2="1480" y2="180" stroke="#3a342b" stroke-width="3"/><g stroke="#0b0a09" stroke-width="3" opacity="0.8"><path d="M340 180 V520"/><path d="M560 180 V560"/><path d="M780 180 V500"/><path d="M1000 180 V540"/><path d="M1220 180 V520"/></g><g transform="translate(340 500) scale(0.72)"><g transform="translate(0 -40)"><g stroke="#0b0a09" stroke-width="3"><path d="M0 0 V260" opacity="0.6"/></g><path d="M-114 -80 L114 -80 L98 46 C88 300 84 480 96 640 L-96 640 C-84 480 -88 300 -98 46 Z" fill="#1c1814"/><path d="M-114 -80 C-168 60 -154 260 -122 320 L-78 260 C-96 120 -88 0 -78 -76 Z" fill="#17130f"/><path d="M114 -80 C168 60 154 260 122 320 L78 260 C96 120 88 0 78 -76 Z" fill="#17130f"/><path d="M-114 -80 L114 -80 L98 46 L-98 46 Z" fill="#262019"/><path d="M98 100 C112 300 108 480 96 640" fill="none" stroke="url(#rim)" stroke-width="3" opacity="0.8"/></g></g><g transform="translate(560 560) scale(0.72)"><g transform="translate(0 -50)"><ellipse cx="0" cy="-150" rx="54" ry="66" fill="#14110d"/><path d="M-130 -90 L130 -90 L108 220 C94 520 90 760 100 980 L-100 980 C-90 760 -94 520 -108 220 Z" fill="#1a1611"/><path d="M-130 -90 L130 -90 L118 -44 L-118 -44 Z" fill="#231d15"/><path d="M108 260 C116 540 112 800 100 980" fill="none" stroke="url(#rim)" stroke-width="3" opacity="0.8"/></g></g><g transform="translate(780 500) scale(0.72)"><g transform="translate(0 -40)"><g stroke="#0b0a09" stroke-width="3"><path d="M0 0 V260" opacity="0.6"/></g><path d="M-114 -80 L114 -80 L98 46 C88 300 84 480 96 640 L-96 640 C-84 480 -88 300 -98 46 Z" fill="#1c1814"/><path d="M-114 -80 C-168 60 -154 260 -122 320 L-78 260 C-96 120 -88 0 -78 -76 Z" fill="#17130f"/><path d="M114 -80 C168 60 154 260 122 320 L78 260 C96 120 88 0 78 -76 Z" fill="#17130f"/><path d="M-114 -80 L114 -80 L98 46 L-98 46 Z" fill="#262019"/><path d="M98 100 C112 300 108 480 96 640" fill="none" stroke="url(#rim)" stroke-width="3" opacity="0.8"/></g></g><g transform="translate(1000 540) scale(0.72)"><g transform="translate(0 -50)"><ellipse cx="0" cy="-150" rx="56" ry="70" fill="#14110d"/><path d="M-150 -90 L150 -90 L122 46 C96 260 88 420 104 640 L-104 640 C-88 420 -96 260 -122 46 Z" fill="#1c1712"/><path d="M-150 -90 L150 -90 L138 -40 L-138 -40 Z" fill="#241d15"/><path d="M-150 -90 L150 -90 L138 -40 L-138 -40 Z" fill="none" stroke="url(#rim)" stroke-width="2.5" opacity="0.7"/><path d="M104 80 C120 300 116 480 104 640" fill="none" stroke="url(#rim)" stroke-width="3" opacity="0.8"/></g></g><g transform="translate(1220 500) scale(0.72)"><g transform="translate(0 -40)"><ellipse cx="0" cy="-120" rx="54" ry="62" fill="#14110d"/><path d="M-122 -84 C-150 140 -126 360 -96 560 L96 560 C126 360 150 140 122 -84 Z" fill="#221b13"/><ellipse cx="0" cy="-70" rx="46" ry="16" fill="#2a2217"/><path d="M-122 -84 C-176 60 -160 240 -120 300 L-70 250 C-92 140 -88 0 -76 -70 Z" fill="#1a1510"/><path d="M122 -84 C176 60 160 240 120 300 L70 250 C92 140 88 0 76 -70 Z" fill="#1a1510"/><path d="M96 90 C110 280 106 440 96 560" fill="none" stroke="url(#rim)" stroke-width="3" opacity="0.8"/></g></g><g transform="translate(1550 620) scale(1.1)"><ellipse cx="0" cy="-150" rx="40" ry="52" fill="#171310"/><path d="M-88 -100 L88 -100 L70 40 C56 220 50 380 60 640 L-60 640 C-50 380 -56 220 -70 40 Z" fill="#1b1612"/><path d="M-88 -100 L-150 -140 L-166 -60 L-104 -60 Z" fill="#15110d"/><path d="M88 -100 L150 -140 L166 -60 L104 -60 Z" fill="#15110d"/><line x1="0" y1="-196" x2="0" y2="-232" stroke="#8a8375" stroke-width="2" opacity="0.6"/></g><rect width="1600" height="1000" fill="url(#shade)"/><rect width="1600" height="1000" filter="url(#grain)" opacity="0.55"/><rect width="1600" height="1000" fill="url(#vig)"/><rect x="36" y="36" width="1528" height="928" fill="none" stroke="#2a2620"/><rect x="44" y="44" width="1512" height="912" fill="none" stroke="#2a2620" stroke-opacity="0.5"/></svg>