<svg xmlns="http://www.w3.org/2000/svg" viewBox="0 0 1000 1333" preserveAspectRatio="xMidYMid slice" role="img"><defs><linearGradient id="bg" x1="0" y1="0" x2="1" y2="1"><stop offset="0" stop-color="#140d0e"/><stop offset="0.5" stop-color="#0d090a"/><stop offset="1" stop-color="#0a0708"/></linearGradient><radialGradient id="g0" cx="0.5" cy="0.32" r="0.55"><stop offset="0" stop-color="#8c2f38" stop-opacity="0.42"/><stop offset="1" stop-color="#8c2f38" stop-opacity="0"/></radialGradient><linearGradient id="shade" x1="0" y1="0" x2="0" y2="1"><stop offset="0.35" stop-color="#000" stop-opacity="0"/><stop offset="1" stop-color="#000" stop-opacity="0.82"/></linearGradient><linearGradient id="rim" x1="0" y1="0" x2="1" y2="1"><stop offset="0" stop-color="#e8d9b8" stop-opacity="0.85"/><stop offset="1" stop-color="#e8d9b8" stop-opacity="0"/></linearGradient><linearGradient id="rim-cool" x1="0" y1="0" x2="1" y2="1"><stop offset="0" stop-color="#aab8c2" stop-opacity="0.8"/><stop offset="1" stop-color="#aab8c2" stop-opacity="0"/></linearGradient><radialGradient id="vig" cx="0.5" cy="0.45" r="0.8"><stop offset="0.6" stop-color="#000" stop-opacity="0"/><stop offset="1" stop-color="#000" stop-opacity="0.55"/></radialGradient><filter id="grain" x="0" y="0" width="100%" height="100%"><feTurbulence type="fractalNoise" baseFrequency="0.9" numOctaves="2" stitchTiles="stitch"/><feColorMatrix type="matrix" values="0 0 0 0 1 0 0 0 0 1 0 0 0 0 1 0 0 0 0.05 0"/></filter><linearGradient id="shaft" x1="0" y1="0" x2="0" y2="1"><stop offset="0" stop-color="#e8d9b8" stop-opacity="0.18"/><stop offset="1" stop-color="#e8d9b8" stop-opacity="0"/></linearGradient></defs><rect width="1000" height="1333" fill="url(#bg)"/><rect width="1000" height="1333" fill="url(#g0)"/><circle cx="500" cy="380" r="170" fill="none" stroke="#8c2f38" stroke-opacity="0.32" stroke-width="1.5"/><g transform="translate(500 780) scale(1.200)"><ellipse cx="0" cy="-150" rx="54" ry="66" fill="#14110d"/><path d="M-130 -90 L130 -90 L108 220 C94 520 90 760 100 980 L-100 980 C-90 760 -94 520 -108 220 Z" fill="#1a1611"/><path d="M-130 -90 L130 -90 L118 -44 L-118 -44 Z" fill="#231d15"/><path d="M108 260 C116 540 112 800 100 980" fill="none" stroke="url(#rim-cool)" stroke-width="3" opacity="0.8"/></g><path d="M0 799 Q500.0 772.34 1000 799" fill="none" stroke="#3a2b30" stroke-width="2" opacity="0.55"/><rect width="1000" height="1333" fill="url(#shade)"/><rect width="1000" height="1333" filter="url(#grain)" opacity="0.55"/><rect width="1000" height="1333" fill="url(#vig)"/></svg>